/* XPM */ 
static const char * drag_hand_xpm[] = {
"16 16 64 1",
" 	c None",
"!	c black",
"#	c #989898",
"$	c #9D9D9D",
"%	c #444444",
"&	c #9B9B9B",
"'	c #B0B0B0",
"(	c #BDBDBD",
")	c white",
"*	c #A8A8A8",
"+	c #C1C1C1",
",	c #8B8B8B",
"-	c #757575",
".	c #F8F8F8",
"0	c #747474",
"1	c #C0C0C0",
"2	c #DBDBDB",
"3	c #7D7D7D",
"4	c #6E6E6E",
"5	c #A5A5A5",
"6	c #F1F1F1",
"7	c #6F6F6F",
"8	c #6C6C6C",
"9	c #E0E0E0",
":	c #F5F5F5",
";	c #727272",
"<	c #D6D6D6",
"=	c #B1B1B1",
">	c #777777",
"?	c #BEBEBE",
"@	c #EEEEEE",
"A	c #919191",
"B	c #686868",
"C	c #E9E9E9",
"D	c #D5D5D5",
"E	c #626262",
"F	c #959595",
"G	c #F3F3F3",
"H	c #A6A6A6",
"I	c #FDFDFD",
"J	c #DEDEDE",
"K	c #6A6A6A",
"L	c #B3B3B3",
"M	c #B9B9B9",
"N	c #FEFEFE",
"O	c #F0F0F0",
"P	c #C9C9C9",
"Q	c #707070",
"R	c #FBFBFB",
"S	c #E6E6E6",
"T	c #AEAEAE",
"U	c #6B6B6B",
"V	c #888888",
"W	c #F9F9F9",
"X	c #EBEBEB",
"Y	c #DDDDDD",
"Z	c #898989",
"[	c #EDEDED",
"]	c #E8E8E8",
"^	c #B8B8B8",
"_	c #E5E5E5",
"`	c #E3E3E3",
"a	c #C6C6C6",
"b	c #7E7E7E",
"       #$%      ",
"   &'%())*+#    ",
"  &))+,))-).0%  ",
"  1))23))4))4&5 ",
"  %6))7))8))49:;",
"  %<))=))8))4))4",
" >3?@))))'))$))4",
"A))B$)))))))C)DE",
"#)))F))))))))G$%",
" H))))))))))IJK ",
"  L))))))))ICLB ",
"  %M)))))N.OPQ% ",
"   F:)))R:OSTU  ",
"    V@W.:OXY8%  ",
"    %Z6O[]2^E   ",
"     3]]_`ab    "};