/* XPM */ 
static const char * editor[] = {
"48 48 696 2",
"  	c None",
"! 	c black",
"# 	c #95B63C",
"$ 	c #FFD247",
"% 	c #FFD547",
"& 	c #FFD747",
"' 	c #FFD94D",
"( 	c #FFD749",
") 	c #FFD84B",
"* 	c #FFDE73",
"+ 	c #EFC26E",
", 	c #FB9761",
"- 	c #FC9158",
". 	c #FA8D55",
"0 	c #F98A50",
"1 	c #FA884E",
"2 	c #F9864B",
"3 	c #F27D45",
"4 	c #C5968C",
"5 	c #9EBB4A",
"6 	c #BDDF98",
"7 	c #FFE997",
"8 	c #FFEA93",
"9 	c #FFE989",
": 	c #FFE88A",
"; 	c #FFE78B",
"< 	c #FFE78D",
"= 	c #FFE68E",
"> 	c #FFE188",
"? 	c #EFBB57",
"@ 	c #FCA171",
"A 	c #FDC0A1",
"B 	c #FDC6AA",
"C 	c #FCBE9F",
"D 	c #FCB490",
"E 	c #FCAA82",
"F 	c #F79E75",
"G 	c #F2916C",
"H 	c #B99FA2",
"I 	c #7AADDF",
"J 	c #9FBD52",
"K 	c #C6E3A6",
"L 	c #D3EABC",
"M 	c #FFEAA0",
"N 	c #FFEA95",
"O 	c #FFE888",
"P 	c #FFE787",
"Q 	c #FFE689",
"R 	c #FFE68F",
"S 	c #FFE58A",
"T 	c #FFDD79",
"U 	c #EFB43D",
"V 	c #FCA06F",
"W 	c #FCBB9B",
"X 	c #FDC8AE",
"Y 	c #FDC1A3",
"Z 	c #FDB998",
"[ 	c #FCB088",
"] 	c #F8A27D",
"^ 	c #F29672",
"_ 	c #F08E6C",
"` 	c #B99DA2",
"a 	c #73B1DF",
"b 	c #84B4E1",
"c 	c #98B84A",
"d 	c #C7E4A7",
"e 	c #D9EDC5",
"f 	c #D2EABC",
"g 	c #FFE889",
"h 	c #FFE67A",
"i 	c #FFE57A",
"j 	c #FFE47D",
"k 	c #FFE482",
"l 	c #FFE58B",
"m 	c #FFE589",
"n 	c #FFE488",
"o 	c #FFDA6C",
"p 	c #ECB033",
"q 	c #FC9C68",
"r 	c #FCB18C",
"s 	c #FDBC9C",
"t 	c #FDB492",
"u 	c #FCAE88",
"v 	c #F8A37C",
"w 	c #F29772",
"x 	c #EB866B",
"y 	c #B89DA1",
"z 	c #75B2E0",
"{ 	c #8BBBE4",
"| 	c #83B4E2",
"} 	c #99B94E",
"~ 	c #BFE09B",
" !	c #D7ECC2",
"!!	c #D6ECC2",
"#!	c #CCE7B3",
"$!	c #FFE587",
"%!	c #FFE578",
"&!	c #FFE369",
"'!	c #FFE36E",
"(!	c #FFE373",
")!	c #FFE37C",
"*!	c #FFE487",
"+!	c #FFE489",
",!	c #FED863",
"-!	c #E1A838",
".!	c #FC9C65",
"0!	c #FCA57A",
"1!	c #FDB794",
"2!	c #FDB590",
"3!	c #FDB08A",
"4!	c #F8A17A",
"5!	c #F29671",
"6!	c #F08F6E",
"7!	c #EC886C",
"8!	c #E9816B",
"9!	c #B6989F",
":!	c #75B3E0",
";!	c #8CBBE4",
"<!	c #91BDE6",
"=!	c #6DABDE",
">!	c #94B549",
"?!	c #B8DD92",
"@!	c #D0E9B9",
"A!	c #D4EABD",
"B!	c #D0E9B8",
"C!	c #C5E3A7",
"D!	c #FFE175",
"E!	c #FFE166",
"F!	c #FFDF5A",
"G!	c #FFE163",
"H!	c #FFE16E",
"I!	c #FFE279",
"J!	c #FFE486",
"K!	c #FFE37F",
"L!	c #FAD256",
"M!	c #E29D43",
"N!	c #FC9760",
"O!	c #FC9A6A",
"P!	c #FCAF87",
"Q!	c #FCAC83",
"R!	c #FCA980",
"S!	c #FCA67C",
"T!	c #F79F75",
"U!	c #F2936E",
"V!	c #EF8966",
"W!	c #EA7D60",
"X!	c #E8765D",
"Y!	c #E26351",
"Z!	c #A7828B",
"[!	c #57A1D9",
"]!	c #72ACDF",
"^!	c #7AB0E1",
"_!	c #63A8DC",
"`!	c #4C90D0",
"a!	c #91B247",
"b!	c #A8D07F",
"c!	c #C5E5AA",
"d!	c #CCE8B3",
"e!	c #CDE7B4",
"f!	c #C9E5AE",
"g!	c #BDE09B",
"h!	c #FFDD66",
"i!	c #FFDF5B",
"j!	c #FFDF52",
"k!	c #FFDF5D",
"l!	c #FFE16C",
"m!	c #FFDA7A",
"n!	c #FDB082",
"o!	c #FB9866",
"p!	c #FCA77D",
"q!	c #FBA77A",
"r!	c #FB9C6D",
"s!	c #FB8F5B",
"t!	c #F4814D",
"u!	c #EE6F3E",
"v!	c #EA6536",
"w!	c #E55C37",
"x!	c #E35C3F",
"y!	c #E15B49",
"z!	c #DA4638",
"{!	c #956774",
"|!	c #3B93D4",
"}!	c #5A9ED9",
"~!	c #61A1DA",
" #	c #4396D6",
"!#	c #3B80C6",
"##	c #3976BE",
"$#	c #8EAD45",
"%#	c #A0C578",
"&#	c #BBDB9C",
"'#	c #C1E3A3",
"(#	c #C6E4A9",
")#	c #C8E4AC",
"*#	c #C8D884",
"+#	c #FFDC5D",
",#	c #FFDE54",
"-#	c #FFDE4F",
".#	c #FFE05D",
"0#	c #FFDD88",
"1#	c #FDB68B",
"2#	c #FBA073",
"3#	c #FB9662",
"4#	c #FB894F",
"5#	c #FA8043",
"6#	c #FA7939",
"7#	c #F37035",
"8#	c #ED6530",
"9#	c #E95E2F",
":#	c #E55731",
";#	c #E35E40",
"<#	c #E26553",
"=#	c #E37167",
">#	c #DB4B49",
"?#	c #BA5F58",
"@#	c #4397D5",
"A#	c #5EA0DA",
"B#	c #62A1DA",
"C#	c #3A80C6",
"D#	c #346DBA",
"E#	c #335FA9",
"F#	c #8BA942",
"G#	c #90B367",
"H#	c #B0CF92",
"I#	c #B8D898",
"J#	c #BBE09A",
"K#	c #C3E3A7",
"L#	c #CBE6B0",
"M#	c #C4D588",
"N#	c #9CA186",
"O#	c #C9A56E",
"P#	c #FFDC56",
"Q#	c #FFDF51",
"R#	c #FFE05E",
"S#	c #FFE278",
"T#	c #FFDF8D",
"U#	c #FDAB7B",
"V#	c #FB864B",
"W#	c #FA7D3D",
"X#	c #FA7A37",
"Y#	c #FA7837",
"Z#	c #FA7737",
"[#	c #F47134",
"]#	c #E95D2D",
"^#	c #E4552F",
"_#	c #E3593B",
"`#	c #E26452",
"a#	c #E47A70",
"b#	c #DF6260",
"c#	c #DC4F37",
"d#	c #3A3A3A",
"e#	c #4C6D99",
"f#	c #67A6DC",
"g#	c #67A4DC",
"h#	c #4497D5",
"i#	c #3A80C7",
"j#	c #305AAC",
"k#	c #304999",
"l#	c #86A340",
"m#	c #82A15B",
"n#	c #A3C185",
"o#	c #ADCD8E",
"p#	c #B1D58E",
"q#	c #BADF97",
"r#	c #C7E4AB",
"s#	c #BED48F",
"t#	c #969B81",
"u#	c #131313",
"v#	c #C9A266",
"w#	c #FFE05C",
"x#	c #FFE161",
"y#	c #FFE485",
"z#	c #FFD979",
"{#	c #FC9B61",
"|#	c #FA7634",
"}#	c #FA7635",
"~#	c #F46F33",
" $	c #EE6530",
"!$	c #E95D2E",
"#$	c #E3532D",
"$$	c #E25637",
"%$	c #E15D4B",
"&$	c #E4756B",
"'$	c #DF6462",
"($	c #DA4A32",
")$	c #1F1F1F",
"*$	c #535353",
"+$	c #4F6B96",
",$	c #70AADE",
"-$	c #4D9BD7",
".$	c #3C81C8",
"0$	c #2F59AC",
"1$	c #2B46A0",
"2$	c #2E3F8A",
"3$	c #809B4B",
"4$	c #96B079",
"5$	c #A3BF85",
"6$	c #AACB89",
"7$	c #B3D690",
"8$	c #BEE29F",
"9$	c #B2CE86",
":$	c #909980",
";$	c #141414",
"<$	c #CAA873",
"=$	c #FFE16B",
">$	c #FFE26E",
"?$	c #FFE076",
"@$	c #FFD468",
"A$	c #FC9657",
"B$	c #FA7534",
"C$	c #FA7835",
"D$	c #FA7734",
"E$	c #E25738",
"F$	c #E15E4B",
"G$	c #E37369",
"H$	c #DE5C5A",
"I$	c #DB452D",
"J$	c #252525",
"K$	c #646464",
"L$	c #536F98",
"M$	c #55A1D9",
"N$	c #4285C9",
"O$	c #376EBB",
"P$	c #2C47A1",
"Q$	c #47626E",
"R$	c #7F9B49",
"S$	c #9AB37F",
"T$	c #A1BF83",
"U$	c #ACCD8D",
"V$	c #BADA9B",
"W$	c #A4C67F",
"X$	c #8B957D",
"Y$	c #C8A575",
"Z$	c #FFDE68",
"[$	c #FFDA51",
"]$	c #FFD15D",
"^$	c #FC9456",
"_$	c #F97734",
"`$	c #F47033",
"a$	c #E4542D",
"b$	c #E35838",
"c$	c #E1604E",
"d$	c #E4786E",
"e$	c #DE605D",
"f$	c #303030",
"g$	c #656565",
"h$	c #436794",
"i$	c #4688CA",
"j$	c #376EBA",
"k$	c #2F59AB",
"l$	c #426383",
"m$	c #628339",
"n$	c #7B9843",
"o$	c #98B17A",
"p$	c #A5C189",
"q$	c #B3D195",
"r$	c #98B47A",
"s$	c #89937A",
"t$	c #0C0C0C",
"u$	c #BF9762",
"v$	c #FFBD44",
"w$	c #FC9457",
"x$	c #E3542D",
"y$	c #E35536",
"z$	c #E4766C",
"{$	c #DF615F",
"|$	c #DA4830",
"}$	c #2D2D2D",
"~$	c #464646",
" %	c #2D5186",
"!%	c #376FBB",
"#%	c #49748B",
"$%	c #6A943E",
"%%	c #7A9743",
"&%	c #9EB583",
"'%	c #ACC592",
"(%	c #91AEB5",
")%	c #778BA7",
"*%	c #0E0E0E",
"+%	c #F19F80",
",%	c #FA8C54",
"-%	c #F36F33",
".%	c #ED642F",
"0%	c #E4552D",
"1%	c #DE5D5B",
"2%	c #DA442D",
"3%	c #B96F49",
"4%	c #1B1B1B",
"5%	c #7E9468",
"6%	c #91B746",
"7%	c #70A03F",
"8%	c #6F9643",
"9%	c #62833A",
":%	c #839E50",
";%	c #A6BC8E",
"<%	c #89A2B2",
"=%	c #7093CA",
">%	c #75A4D5",
"?%	c #88B5E4",
"@%	c #020202",
"A%	c #F19E80",
"B%	c #FA8D54",
"C%	c #ED652F",
"D%	c #E95E2E",
"E%	c #E25739",
"F%	c #E15E4C",
"G%	c #CA5F34",
"H%	c #BA7339",
"I%	c #B28A5B",
"J%	c #98B061",
"K%	c #9EC53C",
"L%	c #79B142",
"M%	c #78A549",
"N%	c #7BA053",
"O%	c #618339",
"P%	c #8DA55D",
"Q%	c #8196AA",
"R%	c #6C85C1",
"S%	c #6F92CA",
"T%	c #74A3D5",
"U%	c #78B0DF",
"V%	c #93C2EE",
"W%	c #F98C53",
"X%	c #FA7735",
"Y%	c #E05C4A",
"Z%	c #E3746A",
"[%	c #E06462",
"]%	c #DB4630",
"^%	c #CB6034",
"_%	c #CE7A3B",
"`%	c #DC8E33",
"a%	c #D7972E",
"b%	c #D4A75B",
"c%	c #97B05F",
"d%	c #9EC43C",
"e%	c #81C643",
"f%	c #7FB44A",
"g%	c #84AE5B",
"h%	c #8AAA66",
"i%	c #708E89",
"j%	c #7181B8",
"k%	c #738AC4",
"l%	c #7396CB",
"m%	c #88BBE4",
"n%	c #97C6F1",
"o%	c #F19E7F",
"p%	c #FA8B52",
"q%	c #E55732",
"r%	c #E35A3B",
"s%	c #E37368",
"t%	c #DD5B59",
"u%	c #DC462F",
"v%	c #CB5E34",
"w%	c #DC8D35",
"x%	c #E9A128",
"y%	c #FAB815",
"z%	c #F5B71D",
"{%	c #FBCB52",
"|%	c #96AF5D",
"}%	c #A2C540",
"~%	c #87C64A",
" &	c #88C84E",
"!&	c #8CBC5D",
"#&	c #99BB76",
"$&	c #9DB87F",
"%&	c #708F38",
"&&	c #4A6A96",
"'&	c #7EA1D1",
"(&	c #8196C9",
")&	c #7A9ACD",
"*&	c #78A6D7",
"+&	c #7AB1DF",
",&	c #81B6E3",
"-&	c #68A6DC",
".&	c #82BAEF",
"0&	c #F99159",
"1&	c #ED6630",
"2&	c #E96030",
"3&	c #E55933",
"4&	c #DF605E",
"5&	c #DA432D",
"6&	c #CA5C35",
"7&	c #CB763D",
"8&	c #DA8A36",
"9&	c #E79E2B",
":&	c #F9B617",
";&	c #FFC10E",
"<&	c #FFC420",
"=&	c #FFD05E",
">&	c #96AE5D",
"?&	c #A5C745",
"@&	c #93CC5B",
"A&	c #8DC953",
"B&	c #93CD5F",
"C&	c #9EC777",
"D&	c #ABC78E",
"E&	c #92AF5F",
"F&	c #A0B33F",
"G&	c #5C79A0",
"H&	c #8EB0DB",
"I&	c #89A6D3",
"J&	c #7FAAD9",
"K&	c #74AEDE",
"L&	c #5CA1DB",
"M&	c #5FA0DA",
"N&	c #4B99D7",
"O&	c #7FB8ED",
"P&	c #F9935C",
"Q&	c #FA7838",
"R&	c #E95F2F",
"S&	c #E45933",
"T&	c #E35B3D",
"U&	c #E15F4D",
"V&	c #DB4731",
"W&	c #C85936",
"X&	c #CC763E",
"Y&	c #E89E2B",
"Z&	c #F8B616",
"[&	c #FFC20D",
"]&	c #FFC00C",
"^&	c #FFC633",
"_&	c #CAB946",
"`&	c #A4C745",
"a&	c #9ACE66",
"b&	c #98CF65",
"c&	c #96CE62",
"d&	c #A4D677",
"e&	c #B0D18F",
"f&	c #98BA65",
"g&	c #617CA3",
"h&	c #96B8DF",
"i&	c #89B1DB",
"j&	c #599ED7",
"k&	c #589ED9",
"l&	c #2188CE",
"m&	c #F97837",
"n&	c #E45F41",
"o&	c #DE5B57",
"p&	c #DD482E",
"q&	c #DA8A35",
"r&	c #F7B518",
"s&	c #FFC10D",
"t&	c #DCCA3B",
"u&	c #9BCF67",
"v&	c #A0D16F",
"w&	c #A4D475",
"x&	c #A9D67D",
"y&	c #B2DC8D",
"z&	c #97C05C",
"{&	c #93A632",
"|&	c #6780A7",
"}&	c #7FAFDC",
"~&	c #5EA1D8",
" '	c #60A3DB",
"!'	c #60A1DA",
"#'	c #2089CE",
"$'	c #ED6632",
"%'	c #E35D40",
"&'	c #DF615E",
"''	c #DC462D",
"('	c #B35630",
")'	c #CA743F",
"*'	c #D68637",
"+'	c #E4992D",
",'	c #F3AE1F",
"-'	c #CCC736",
".'	c #A0D16E",
"0'	c #B2DA8B",
"1'	c #B8DD93",
"2'	c #9FD05F",
"3'	c #93A732",
"4'	c #050505",
"5'	c #637DA4",
"6'	c #76AEDE",
"7'	c #6EABDF",
"8'	c #67A5DC",
"9'	c #4C9AD7",
":'	c #ED6631",
";'	c #EA6134",
"<'	c #E65C37",
"='	c #E57A6F",
">'	c #E06662",
"?'	c #DE4E32",
"@'	c #93714C",
"A'	c #B57131",
"B'	c #F3AD1F",
"C'	c #FFC20F",
"D'	c #CCC840",
"E'	c #A9D57D",
"F'	c #B7DC92",
"G'	c #BEE09D",
"H'	c #A8D46B",
"I'	c #94A833",
"J'	c #5C78A0",
"K'	c #80B3E1",
"L'	c #77AFE0",
"M'	c #57A0DA",
"N'	c #248ACF",
"O'	c #FA7736",
"P'	c #F37034",
"Q'	c #EB6436",
"R'	c #E55F3C",
"S'	c #E46448",
"T'	c #E36857",
"U'	c #E67E72",
"V'	c #DE605C",
"W'	c #DE4D2E",
"X'	c #AA8051",
"Y'	c #DB9D26",
"Z'	c #FFC211",
"['	c #FFC212",
"]'	c #FFC110",
"^'	c #FFC213",
"_'	c #FFC416",
"`'	c #FCC521",
"a'	c #D1CF59",
"b'	c #B9DD95",
"c'	c #C3E2A4",
"d'	c #ABD46F",
"e'	c #89B8E3",
"f'	c #6EADDF",
"g'	c #3894D3",
"h'	c #FA7F42",
"i'	c #F5773D",
"j'	c #EE6E3B",
"k'	c #EB6A3D",
"l'	c #E76643",
"m'	c #E76D4F",
"n'	c #E4705F",
"o'	c #E78579",
"p'	c #E06A66",
"q'	c #DD4A2D",
"r'	c #070707",
"s'	c #DCB05A",
"t'	c #F8C028",
"u'	c #FFC724",
"v'	c #FFC726",
"w'	c #FFC828",
"x'	c #FFC82B",
"y'	c #FDCA35",
"z'	c #FACD4A",
"{'	c #DBD880",
"|'	c #C9E5AD",
"}'	c #B0D676",
"~'	c #95A934",
" (	c #6B84A9",
"!(	c #8EBDE5",
"#(	c #61ABDD",
"$(	c #F68D5E",
"%(	c #F08256",
"&(	c #EF7F56",
"'(	c #E9785A",
"((	c #EA7C60",
")(	c #E77E6E",
"*(	c #E98F84",
"+(	c #E37672",
",(	c #DF5333",
"-(	c #1E1E1E",
".(	c #EFCA78",
"0(	c #F8CB5F",
"1(	c #FFD04A",
"2(	c #FFD14C",
"3(	c #FFD24E",
"4(	c #FFD253",
"5(	c #FDD359",
"6(	c #FBD566",
"7(	c #F9D97E",
"8(	c #E3E1A0",
"9(	c #B6DA81",
":(	c #95A834",
";(	c #6E86AB",
"<(	c #95C3E6",
"=(	c #F5A98A",
">(	c #F4A182",
"?(	c #EF9880",
"@(	c #EE9883",
"A(	c #EB9387",
"B(	c #EC9D93",
"C(	c #E47D79",
"D(	c #E05333",
"E(	c #2C2C2C",
"F(	c #F7DA99",
"G(	c #FDDC8B",
"H(	c #FFDE7E",
"I(	c #FFDE80",
"J(	c #FEE086",
"K(	c #FCE191",
"L(	c #FBE4A0",
"M(	c #F8E29E",
"N(	c #D4CC57",
"O(	c #4E6590",
"P(	c #C25955",
"Q(	c #BE5553",
"R(	c #DF4B2A",
"S(	c #E8BA5E",
"T(	c #C19A68",
"U(	c #9C8B4B",
"                                                                                                ",
"                                                                                                ",
"                                                                                                ",
"                                                                                                ",
"                                                                                                ",
"                                                                                                ",
"                                                                                                ",
"                                                                                                ",
"                                                                                                ",
"                  # $ % & ' ( ) * +                     , - . 0 1 2 3 4                         ",
"                5 6 7 8 9 : ; < = > ?                 @ A B C D E F G H I                       ",
"              J K L M N 9 O P Q R S T U             V W X Y Z [ ] ^ _ ` a b                     ",
"            c d e f 7 g h i j k l m n o p         q r Y s t u v w _ x y z { |                   ",
"          } ~  !!!#!$!%!&!'!(!)!n *!+!m ,!-!    .!0!1!2!3!E 4!5!6!7!8!9!:!;!<!=!                ",
"        >!?!@!A!B!C!D!E!F!G!H!I!*!J!n S K!L!M!N!O!P!Q!R!S!T!U!V!W!X!Y!Z![!]!^!_!`!              ",
"      a!b!c!d!e!f!g!h!i!j!k!l!I!J!J!J!n K!m!n!o!p!q!r!s!t!u!v!w!x!y!z!{!|!}!~! #!###            ",
"    $#%#&#'#(#)#K *#+#,#-#.#l!I!J!*!J!J!0#1#2#3#4#5#6#7#8#9#:#;#<#=#>#?#@#A#B# #C#D#E#          ",
"  F#G#H#I#J#K#L#M#N#O#P#Q#R#l!S#*!J!J!T#U#V#W#X#Y#Z#[#8#]#^#_#`#a#b#c#d#e#f#g#h#i#D#j#k#        ",
"l#m#n#o#p#q#r#s#t#! u#v#w#x#l!I!*!y#z#{#|#}#}#}#}#~# $!$#$$$%$&$'$($! )$*$+$,$-$.$D#0$1$2$      ",
"3$4$5$6$7$8$9$:$! ! ! ;$<$=$>$S#?$@$A$B$C$}#D$D$~#8#]##$E$F$G$H$I$! ! ! J$K$L$M$N$O$0$P$Q$      ",
"R$S$T$U$V$W$X$! ! ! ! ! ;$Y$Z$[$]$^$|#C$_$}#}#`$ $]#a$b$c$d$e$I$! ! ! !   f$g$h$i$j$k$l$m$      ",
"n$o$p$q$r$s$! ! ! !     ! t$u$v$w$|#}#}#}#C$`$ $]#x$y$%$z${$|$! ! !         }$~$ %!%#%$%m$      ",
"%%&%'%(%)%*%! !             +%,%|#}#}#D$}#-%.%]#0%E$%$&$1%2%3%! !             4%5%6%7%8%9%!     ",
":%;%<%=%>%?%@%            A%B%|#}#}#D$D$`$C%D%^#E%F%&$1%2%G%H%I%!             J%K%L%M%N%O%!     ",
"P%Q%R%S%T%U%V%          A%W%X%C$D$D$}#`$.%D%:#E$Y%Z%[%]%^%_%`%a%b%          c%d%e%f%g%h%O%!     ",
"i%j%k%l%>%U%m%n%      o%p%|#C$}#C$C$`$8#9#q%r%F%s%t%u%v%_%w%x%y%z%{%      |%}%~% &!&#&$&%&!     ",
"&&'&(&)&*&+&,&-&.&  o%0&|#C$_$}#}#-%1&2&3&r%c$Z%4&5&6&7&8&9&:&;&;&<&=&  >&?&@&A&B&C&D&E&F&!     ",
"  G&H&I&J&K&L&M&N&O&P&Q&D$C$C$}#`$1&R&S&T&U&G${$V&W&X&8&Y&Z&[&[&;&]&^&_&`&a&b&c&d&e&f&F&! !     ",
"  ! g&h&i&j&k&M&N&l&m&C$}#D$}#`$ $9#3&n&Y!&$o&p&W&7&q&9&r&;&]&;&;&;&s&t&u&v&w&x&y&z&{&! ! !     ",
"    ! |&}&~& '!'N&#'D$}#}#}#[#$'2&3&%'`#d$&'''(')'*'+',';&;&s&;&;&;&;&-'.'x&0'1'2'3'! ! !       ",
"      4'5'6'7'8'9'l&C$}#}#`$:';'<';#Y!='>'?'! @'A'+'B']&]&;&]&;&;&;&C'D'E'F'G'H'I'! ! !         ",
"        ! J'K'L'M'N'O'C$P'$'Q'R'S'T'U'V'W'! ! ! X'Y'Z'Z'['Z']'^'^'_'`'a'b'c'd'I'! ! !           ",
"          ! g&e'f'g'h'i'j'k'l'm'n'o'p'q'! ! ! ! r's't'u'u'v'w'w'x'y'z'{'|'}'~'! ! !             ",
"            4' (!(#($(%(&('((()(*(+(,(! ! ! !   ! -(.(0(1(2(3(4(5(6(7(8(9(:(! ! !               ",
"              ! ;(<(=(>(?(@(A(B(C(D(! ! !           E(F(G(H(I(J(K(L(M(N(~'! ! !                 ",
"                ! O(P(Q(Q(Q(Q(Q(R(! ! !               ! S(T(T(T(T(T(T(U(! ! !                   ",
"                  ! ! ! ! ! ! ! ! ! !                   ! ! ! ! ! ! ! ! ! !                     ",
"                    ! ! ! ! ! ! ! !                       ! ! ! ! ! ! ! !                       ",
"                      ! ! ! ! ! !                           ! ! ! ! ! !                         ",
"                                                                                                ",
"                                                                                                ",
"                                                                                                ",
"                                                                                                ",
"                                                                                                ",
"                                                                                                ",
"                                                                                                ",
"                                                                                                ",
"                                                                                                "};